PathFileType	4	(x/y/z)	S05_PSF_T03
DataRate	CameraRate	NumFrames	NumMarkers	Units	OrigDataRate	OrigDataStartFrame	OrigNumFrames
240	240	6	50	mm	240	103	410
Frame#	Time	Sternum			R.Acromium			L.Acromium			Top.Head			R.ASIS			L.ASIS			R.PSIS			L.PSIS			R.Great.Tro			L.Great.Tro			R.Iliac.Crest			L.Iliac.Crest			V.Sacral			R.Thigh.Upper.Post			R.Thigh.Lower.Ant			R.Thigh.Lower.Post			R.Thigh.Upper.Ant			R.Knee.Lat			R.Knee.Med			R.Shank.Upper.Post			R.Shank.Lower.Ant			R.Shank.Lower.Post			R.Shank.Upper.Ant			R.Ankle.Lat			R.Ankle.Med			R.Heel.Upper			R.Heel.Med			R.Heel.Lat			R.Toe.Lat			R.Toe.Med			R.Toe.Tip			L.Thigh.Upper.Post			L.Thigh.Lower.Ant			L.Thigh.Lower.Post			L.Thigh.Upper.Ant			L.Knee.Lat			L.Shank.Upper.Post			L.Shank.Lower.Ant			L.Shank.Lower.Post			L.Shank.Upper.Ant			L.Ankle.Lat			L.Ankle.Med			L.Heel.Upper			L.Heel.Med			L.Heel.Lat			L.Toe.Lat			L.Toe.Med			L.Toe.Tip			Cervical.Spine			Back			
		X1	Y1	Z1	X2	Y2	Z2	X3	Y3	Z3	X4	Y4	Z4	X5	Y5	Z5	X6	Y6	Z6	X7	Y7	Z7	X8	Y8	Z8	X9	Y9	Z9	X10	Y10	Z10	X11	Y11	Z11	X12	Y12	Z12	X13	Y13	Z13	X14	Y14	Z14	X15	Y15	Z15	X16	Y16	Z16	X17	Y17	Z17	X18	Y18	Z18	X19	Y19	Z19	X20	Y20	Z20	X21	Y21	Z21	X22	Y22	Z22	X23	Y23	Z23	X24	Y24	Z24	X25	Y25	Z25	X26	Y26	Z26	X27	Y27	Z27	X28	Y28	Z28	X29	Y29	Z29	X30	Y30	Z30	X31	Y31	Z31	X32	Y32	Z32	X33	Y33	Z33	X34	Y34	Z34	X35	Y35	Z35	X36	Y36	Z36	X37	Y37	Z37	X38	Y38	Z38	X39	Y39	Z39	X40	Y40	Z40	X41	Y41	Z41	X42	Y42	Z42	X43	Y43	Z43	X44	Y44	Z44	X45	Y45	Z45	X46	Y46	Z46	X47	Y47	Z47	X48	Y48	Z48	X49	Y49	Z49	X50	Y50	Z50	

103	0.425	-894.87	1267	258.97	-988.38	1531	407.62	-1004	1540.6	83.723	-979.26	1836.2	232.76	-958.04	1013.9	388.77	-957.33	1022.5	139.01	NaN	NaN	NaN	NaN	NaN	NaN	-1033.8	930.66	457.09	-1058.7	945.63	71.274	-1046.7	1098.7	430.46	-1052.6	1097.5	95.888	-1174.1	997.82	276.04	-898.31	738.62	456.83	-825.04	692.05	402.26	-875.48	652.71	437.47	-852.43	775.61	420.31	-852.21	557.05	414.71	-839.76	546	283.64	-905.79	313.3	398.5	-838.28	255.09	405.57	-896.49	238.53	383.44	-846.11	331.62	420.45	-835.81	145.41	388.17	-823.88	175.58	302.73	-891.42	83.935	321.53	-870.2	58.275	292.81	-879.03	54.695	357.04	-721.92	72.913	422.96	-681.12	99.535	312.29	-629.5	129.03	363.38	-1080.3	709.09	83.399	-1005.7	629.17	103.02	-1077.4	615.25	102	-1001.4	717.96	81.812	-1078.2	520.62	113.12	-1169.2	329.09	124.65	-1108.5	263.12	126.12	-1179.5	259.4	145.09	-1102.9	332.26	110.94	-1163.7	115.48	159.08	-1126.8	132.79	242.55	-1224.6	70.702	216.59	-1212.6	46.255	248.3	-1224.4	44.122	187.77	-1044.2	35.857	125.62	-1017	53.326	243.56	-954.92	59.377	186.29	-1042	1573.4	250.53	-1161.6	1299.7	258.66
104	0.42917	-889.41	1266.3	258.92	-982.9	1530.2	407.75	-998.62	1540	83.88	-973.88	1835.5	233.09	-952.25	1013	388.65	-951.88	1021.9	138.9	-1155.6	1028.5	309.94	NaN	NaN	NaN	-1027.8	929.68	456.99	-1053.9	945.35	71.354	-1040.5	1097.8	430.51	-1047.5	1096.9	96.014	-1168.5	997.37	276.43	-893.48	737.1	456.44	-820.54	690.23	401.62	-871.03	651.09	436.98	-847.55	773.89	419.76	-847.52	555.65	413.89	-835.28	544.56	282.54	-894.95	310.78	398.27	-825.84	254.56	405.71	-883.54	236.25	383.35	-835.8	330.83	420.31	-820.03	144.73	388.53	-808.89	174.93	303.05	-873.71	81.419	321.91	-851.68	56.276	293.31	-860.62	52.684	357.55	-704.19	75.578	423.7	-664.04	102.96	313.17	-612.89	134.17	364.18	-1077.1	709.08	83.445	-1002.9	628.71	103.04	-1074.7	615.22	102.05	-998.15	717.44	81.769	-1076.2	520.52	113.22	-1168.1	329.39	124.88	-1107.8	263.15	126.19	-1178.8	259.74	145.33	-1101.9	332.25	111.01	-1163.5	115.63	159.29	-1126.4	132.77	242.77	-1224.5	70.838	216.78	-1212.5	46.315	248.45	-1224.3	44.296	187.91	-1044.2	35.86	125.63	-1016.9	53.108	243.62	-954.79	59.071	186.32	-1036.5	1572.7	250.67	-1156.1	1298.9	258.82
105	0.43333	-883.93	1265.5	258.88	-977.41	1529.3	407.9	-993.24	1539.3	84.06	-968.5	1834.7	233.43	-946.45	1012.2	388.53	-946.43	1021.2	138.81	-1150.6	1028	310.24	NaN	NaN	NaN	-1021.8	928.63	456.87	-1049.1	945.05	71.43	-1034.4	1096.9	430.57	-1042.3	1096.4	96.15	-1162.9	996.88	276.81	-888.69	735.5	456.06	-816.09	688.32	401	-866.64	649.39	436.51	-842.69	772.09	419.23	-842.88	554.2	413.07	-830.86	543.04	281.43	-884.18	308.39	398.08	-813.53	254.18	405.89	-870.69	234.14	383.3	-825.61	330.14	420.18	-804.42	144.27	388.9	-794.07	174.49	303.4	-856.16	79.211	322.32	-833.34	54.601	293.83	-842.38	50.996	358.09	-686.73	78.483	424.46	-647.23	106.63	314.01	-596.65	139.47	364.97	-1073.8	709.05	83.491	-1000.1	628.24	103.08	-1072	615.19	102.1	-994.84	716.9	81.731	-1074.2	520.42	113.33	-1167.1	329.69	125.11	-1107	263.18	126.27	-1178	260.08	145.59	-1100.8	332.23	111.08	-1163.2	115.78	159.51	-1126	132.76	242.99	-1224.4	70.977	216.99	-1212.3	46.373	248.6	-1224.3	44.469	188.07	-1044.2	35.868	125.64	-1016.8	52.891	243.67	-954.65	58.77	186.35	-1031	1571.9	250.84	-1150.5	1298.2	258.98
106	0.4375	-878.44	1264.7	258.86	-971.92	1528.5	408.07	-987.85	1538.6	84.264	-963.11	1833.9	233.79	-940.64	1011.3	388.43	-941.01	1020.6	138.74	-1145.3	1027.4	310.56	-1145.4	1035.8	219.67	-1015.7	927.51	456.75	-1044.3	944.72	71.502	-1028.3	1096	430.64	-1037.1	1095.8	96.293	-1157.3	996.34	277.18	-883.92	733.84	455.69	-811.68	686.33	400.4	-862.3	647.62	436.05	-837.84	770.21	418.72	-838.26	552.71	412.27	-826.5	541.48	280.32	-873.48	306.14	397.93	-801.35	253.95	406.09	-857.96	232.21	383.28	-815.53	329.55	420.04	-789.01	144.04	389.29	-779.45	174.25	303.76	-838.8	77.309	322.75	-815.23	53.241	294.38	-824.35	49.619	358.65	-669.57	81.604	425.21	-630.71	110.5	314.8	-580.82	144.91	365.74	-1070.6	709.01	83.537	-997.3	627.74	103.13	-1069.2	615.14	102.16	-991.51	716.34	81.698	-1072.3	520.32	113.44	-1166	329.99	125.35	-1106.2	263.2	126.35	-1177.3	260.42	145.86	-1099.8	332.22	111.16	-1162.9	115.94	159.73	-1125.7	132.74	243.21	-1224.2	71.118	217.21	-1212.2	46.431	248.77	-1224.2	44.643	188.24	-1044.1	35.878	125.66	-1016.7	52.676	243.72	-954.52	58.474	186.37	-1025.5	1571.1	251.02	-1144.8	1297.3	259.15
107	0.44167	-872.94	1263.9	258.87	-966.43	1527.5	408.26	-982.45	1537.9	84.492	-957.72	1833.1	234.17	-934.82	1010.3	388.35	-935.65	1020	138.68	-1139.9	1026.7	310.88	-1140.5	1035.3	220	-1009.5	926.33	456.62	-1039.4	944.35	71.569	-1022.3	1095	430.72	-1031.9	1095.1	96.444	-1151.7	995.76	277.55	-879.18	732.13	455.33	-807.29	684.27	399.81	-857.99	645.79	435.6	-833.01	768.28	418.22	-833.67	551.19	411.5	-822.16	539.88	279.21	-862.88	304.02	397.83	-789.32	253.87	406.32	-845.36	230.46	383.31	-805.57	329.05	419.9	-773.81	144.03	389.69	-765.05	174.2	304.15	-821.65	75.704	323.2	-797.37	52.186	294.95	-806.57	48.541	359.23	-652.74	84.914	425.96	-614.49	114.57	315.52	-565.39	150.44	366.49	-1067.2	708.94	83.582	-994.45	627.23	103.19	-1066.4	615.07	102.22	-988.15	715.76	81.67	-1070.2	520.2	113.56	-1164.9	330.3	125.59	-1105.5	263.23	126.44	-1176.6	260.76	146.14	-1098.7	332.2	111.25	-1162.7	116.1	159.96	-1125.3	132.73	243.44	-1224.1	71.262	217.43	-1212.1	46.489	248.96	-1224.1	44.817	188.42	-1044.1	35.892	125.67	-1016.5	52.464	243.78	-954.39	58.183	186.4	-1020	1570.3	251.23	-1139.1	1296.5	259.33
108	0.44583	-867.43	1263.1	258.89	-960.92	1526.6	408.47	-977.04	1537.2	84.745	-952.32	1832.2	234.57	-928.99	1009.4	388.28	-930.38	1019.3	138.63	-1134.3	1026	311.21	-1135.4	1034.8	220.34	-1003.3	925.09	456.49	-1034.5	943.95	71.632	-1016.2	1094	430.82	-1026.6	1094.5	96.602	-1146	995.13	277.91	-874.44	730.37	454.97	-802.92	682.16	399.24	-853.69	643.91	435.16	-828.18	766.29	417.73	-829.08	549.65	410.74	-817.85	538.24	278.12	-852.37	302.04	397.77	-777.45	253.92	406.57	-832.91	228.88	383.38	-795.73	328.64	419.78	-758.86	144.21	390.1	-750.89	174.34	304.54	-804.77	74.383	323.68	-779.82	51.421	295.53	-789.06	47.748	359.83	-636.25	88.384	426.68	-598.61	118.79	316.16	-550.38	156.03	367.19	-1063.9	708.85	83.626	-991.57	626.7	103.26	-1063.5	614.99	102.28	-984.76	715.15	81.647	-1068.2	520.08	113.68	-1163.8	330.61	125.84	-1104.7	263.25	126.53	-1175.9	261.09	146.43	-1097.6	332.19	111.34	-1162.4	116.26	160.19	-1124.9	132.73	243.67	-1224	71.406	217.67	-1211.9	46.548	249.15	-1224	44.991	188.61	-1044.1	35.909	125.69	-1016.4	52.254	243.83	-954.25	57.897	186.42	-1014.5	1569.4	251.46	-1133.4	1295.6	259.52
